<?xml version="1.0" encoding="UTF-8" standalone="no"?>
<!DOCTYPE svg PUBLIC "-//W3C//DTD SVG 1.1//EN"
 "http://www.w3.org/Graphics/SVG/1.1/DTD/svg11.dtd">
<!-- Generated by graphviz version 2.40.1 (20161225.0304)
 -->
<!-- Title: division Pages: 1 -->
<svg width="794pt" height="502pt"
 viewBox="0.00 0.00 793.50 502.00" xmlns="http://www.w3.org/2000/svg" xmlns:xlink="http://www.w3.org/1999/xlink">
<g id="graph0" class="graph" transform="scale(1 1) rotate(0) translate(4 498)">
<title>division</title>
<polygon fill="#ffffff" stroke="transparent" points="-4,4 -4,-498 789.5,-498 789.5,4 -4,4"/>
<!-- division -->
<g id="node1" class="node">
<title>division</title>
<polygon fill="#efefef" stroke="transparent" points="571,-105.5 571,-140.5 740,-140.5 740,-105.5 571,-105.5"/>
<polygon fill="none" stroke="#000000" points="571,-105.5 571,-140.5 740,-140.5 740,-105.5 571,-105.5"/>
<text text-anchor="start" x="604.491" y="-118.3" font-family="Arial Bold" font-size="18.00" fill="#000000">division</text>
<text text-anchor="start" x="664.4922" y="-118.3" font-family="Arial" font-size="14.00" fill="#000000"> </text>
<text text-anchor="start" x="668.3828" y="-118.3" font-family="Arial" font-size="14.00" fill="#666666">[table]</text>
<polygon fill="none" stroke="#000000" points="571,-75.5 571,-105.5 740,-105.5 740,-75.5 571,-75.5"/>
<text text-anchor="start" x="578" y="-86.9" font-family="Arial" font-size="14.00" fill="#000000">id </text>
<text text-anchor="start" x="592.7798" y="-86.9" font-family="Arial" font-size="14.00" fill="#666666">[INTEGER]</text>
<polygon fill="none" stroke="#000000" points="571,-45.5 571,-75.5 740,-75.5 740,-45.5 571,-45.5"/>
<text text-anchor="start" x="577.7237" y="-56.9" font-family="Arial" font-size="14.00" fill="#000000">division </text>
<text text-anchor="start" x="628.2819" y="-56.9" font-family="Arial" font-size="14.00" fill="#666666">[VARCHAR (50)]</text>
<polygon fill="none" stroke="#000000" stroke-width="3" points="569,-44.5 569,-142.5 741,-142.5 741,-44.5 569,-44.5"/>
</g>
<!-- node -->
<g id="node2" class="node">
<title>node</title>
<polygon fill="#efefef" stroke="transparent" points="570,-415.5 570,-450.5 742,-450.5 742,-415.5 570,-415.5"/>
<polygon fill="none" stroke="#000000" points="570,-415.5 570,-450.5 742,-450.5 742,-415.5 570,-415.5"/>
<text text-anchor="start" x="614.9792" y="-428.3" font-family="Arial Bold" font-size="18.00" fill="#000000">node</text>
<text text-anchor="start" x="655.004" y="-428.3" font-family="Arial" font-size="14.00" fill="#000000"> </text>
<text text-anchor="start" x="658.8946" y="-428.3" font-family="Arial" font-size="14.00" fill="#666666">[table]</text>
<polygon fill="none" stroke="#000000" points="570,-385.5 570,-415.5 742,-415.5 742,-385.5 570,-385.5"/>
<text text-anchor="start" x="577" y="-396.9" font-family="Arial" font-size="14.00" fill="#000000">tax_id </text>
<text text-anchor="start" x="618.2356" y="-396.9" font-family="Arial" font-size="14.00" fill="#666666">[INTEGER]</text>
<polygon fill="none" stroke="#000000" points="570,-355.5 570,-385.5 742,-385.5 742,-355.5 570,-355.5"/>
<text text-anchor="start" x="576.6494" y="-366.9" font-family="Arial" font-size="14.00" fill="#000000">parent_tax_id </text>
<text text-anchor="start" x="665.3492" y="-366.9" font-family="Arial" font-size="14.00" fill="#666666">[INTEGER]</text>
<polygon fill="none" stroke="#000000" points="570,-325.5 570,-355.5 742,-355.5 742,-325.5 570,-325.5"/>
<text text-anchor="start" x="577" y="-336.9" font-family="Arial" font-size="14.00" fill="#000000">rank </text>
<text text-anchor="start" x="608.1164" y="-336.9" font-family="Arial" font-size="14.00" fill="#666666">[VARCHAR (25)]</text>
<polygon fill="none" stroke="#000000" points="570,-295.5 570,-325.5 742,-325.5 742,-295.5 570,-295.5"/>
<text text-anchor="start" x="577" y="-306.9" font-family="Arial" font-size="14.00" fill="#000000">division_id </text>
<text text-anchor="start" x="646.23" y="-306.9" font-family="Arial" font-size="14.00" fill="#666666">[INTEGER]</text>
<polygon fill="none" stroke="#000000" points="570,-265.5 570,-295.5 742,-295.5 742,-265.5 570,-265.5"/>
<text text-anchor="start" x="577" y="-276.9" font-family="Arial" font-size="14.00" fill="#000000">comment </text>
<text text-anchor="start" x="638.4502" y="-276.9" font-family="Arial" font-size="14.00" fill="#666666">[TEXT]</text>
</g>
<!-- node&#45;&gt;division -->
<g id="edge1" class="edge">
<title>node:division_id&#45;&gt;division:id</title>
<path fill="none" stroke="#000000" d="M560.0912,-308.9396C534.0205,-299.5693 547.9061,-250.2626 570,-223 618.6258,-162.9986 691.3742,-247.0014 740,-187 767.0035,-153.6793 782.8889,-90.5 740,-90.5"/>
<polygon fill="#000000" stroke="#000000" points="560.1217,-308.9443 569.2999,-314.9452 565.0609,-309.7221 570,-310.5 570,-310.5 570,-310.5 565.0609,-309.7221 570.7001,-306.0548 560.1217,-308.9443 560.1217,-308.9443"/>
<text text-anchor="start" x="6.9535" y="-320.5" font-family="Arial" font-size="10.00" fill="#000000">FOREIGN KEY (division_id) REFERENCES division (id) ON UPDATE NO ACTION ON DELETE NO ACTION MATCH NONE</text>
</g>
</g>
</svg>
