<?xml version="1.0" encoding="UTF-8" standalone="no"?>
<!DOCTYPE svg PUBLIC "-//W3C//DTD SVG 1.1//EN"
 "http://www.w3.org/Graphics/SVG/1.1/DTD/svg11.dtd">
<!-- Generated by graphviz version 2.40.1 (20161225.0304)
 -->
<!-- Title: node Pages: 1 -->
<svg width="796pt" height="502pt"
 viewBox="0.00 0.00 796.00 502.00" xmlns="http://www.w3.org/2000/svg" xmlns:xlink="http://www.w3.org/1999/xlink">
<g id="graph0" class="graph" transform="scale(1 1) rotate(0) translate(4 498)">
<title>node</title>
<polygon fill="#ffffff" stroke="transparent" points="-4,4 -4,-498 792,-498 792,4 -4,4"/>
<!-- node -->
<g id="node1" class="node">
<title>node</title>
<polygon fill="#efefef" stroke="transparent" points="570,-412.5 570,-447.5 742,-447.5 742,-412.5 570,-412.5"/>
<polygon fill="none" stroke="#000000" points="570,-412.5 570,-447.5 742,-447.5 742,-412.5 570,-412.5"/>
<text text-anchor="start" x="614.9792" y="-425.3" font-family="Arial Bold" font-size="18.00" fill="#000000">node</text>
<text text-anchor="start" x="655.004" y="-425.3" font-family="Arial" font-size="14.00" fill="#000000"> </text>
<text text-anchor="start" x="658.8946" y="-425.3" font-family="Arial" font-size="14.00" fill="#666666">[table]</text>
<polygon fill="none" stroke="#000000" points="570,-382.5 570,-412.5 742,-412.5 742,-382.5 570,-382.5"/>
<text text-anchor="start" x="577" y="-393.9" font-family="Arial" font-size="14.00" fill="#000000">tax_id </text>
<text text-anchor="start" x="618.2356" y="-393.9" font-family="Arial" font-size="14.00" fill="#666666">[INTEGER]</text>
<polygon fill="none" stroke="#000000" points="570,-352.5 570,-382.5 742,-382.5 742,-352.5 570,-352.5"/>
<text text-anchor="start" x="576.6494" y="-363.9" font-family="Arial" font-size="14.00" fill="#000000">parent_tax_id </text>
<text text-anchor="start" x="665.3492" y="-363.9" font-family="Arial" font-size="14.00" fill="#666666">[INTEGER]</text>
<polygon fill="none" stroke="#000000" points="570,-322.5 570,-352.5 742,-352.5 742,-322.5 570,-322.5"/>
<text text-anchor="start" x="577" y="-333.9" font-family="Arial" font-size="14.00" fill="#000000">rank </text>
<text text-anchor="start" x="608.1164" y="-333.9" font-family="Arial" font-size="14.00" fill="#666666">[VARCHAR (25)]</text>
<polygon fill="none" stroke="#000000" points="570,-292.5 570,-322.5 742,-322.5 742,-292.5 570,-292.5"/>
<text text-anchor="start" x="577" y="-303.9" font-family="Arial" font-size="14.00" fill="#000000">division_id </text>
<text text-anchor="start" x="646.23" y="-303.9" font-family="Arial" font-size="14.00" fill="#666666">[INTEGER]</text>
<polygon fill="none" stroke="#000000" points="570,-262.5 570,-292.5 742,-292.5 742,-262.5 570,-262.5"/>
<text text-anchor="start" x="577" y="-273.9" font-family="Arial" font-size="14.00" fill="#000000">comment </text>
<text text-anchor="start" x="638.4502" y="-273.9" font-family="Arial" font-size="14.00" fill="#666666">[TEXT]</text>
<polygon fill="none" stroke="#000000" stroke-width="3" points="568.5,-261.5 568.5,-449.5 743.5,-449.5 743.5,-261.5 568.5,-261.5"/>
</g>
<!-- division -->
<g id="node2" class="node">
<title>division</title>
<polygon fill="#efefef" stroke="transparent" points="571,-102.5 571,-137.5 740,-137.5 740,-102.5 571,-102.5"/>
<polygon fill="none" stroke="#000000" points="571,-102.5 571,-137.5 740,-137.5 740,-102.5 571,-102.5"/>
<text text-anchor="start" x="604.491" y="-115.3" font-family="Arial Bold" font-size="18.00" fill="#000000">division</text>
<text text-anchor="start" x="664.4922" y="-115.3" font-family="Arial" font-size="14.00" fill="#000000"> </text>
<text text-anchor="start" x="668.3828" y="-115.3" font-family="Arial" font-size="14.00" fill="#666666">[table]</text>
<polygon fill="none" stroke="#000000" points="571,-72.5 571,-102.5 740,-102.5 740,-72.5 571,-72.5"/>
<text text-anchor="start" x="578" y="-83.9" font-family="Arial" font-size="14.00" fill="#000000">id </text>
<text text-anchor="start" x="592.7798" y="-83.9" font-family="Arial" font-size="14.00" fill="#666666">[INTEGER]</text>
<polygon fill="none" stroke="#000000" points="571,-42.5 571,-72.5 740,-72.5 740,-42.5 571,-42.5"/>
<text text-anchor="start" x="577.7237" y="-53.9" font-family="Arial" font-size="14.00" fill="#000000">division </text>
<text text-anchor="start" x="628.2819" y="-53.9" font-family="Arial" font-size="14.00" fill="#666666">[VARCHAR (50)]</text>
</g>
<!-- node&#45;&gt;division -->
<g id="edge1" class="edge">
<title>node:division_id&#45;&gt;division:id</title>
<path fill="none" stroke="#000000" d="M560.104,-306.0096C532.6627,-296.6365 547.0497,-245.3194 570,-217 618.6258,-156.9986 691.3742,-241.0014 740,-181 766.164,-148.7152 781.5556,-87.5 740,-87.5"/>
<polygon fill="#000000" stroke="#000000" points="560.1115,-306.0107 569.3298,-311.9498 565.0558,-306.7553 570,-307.5 570,-307.5 570,-307.5 565.0558,-306.7553 570.6702,-303.0502 560.1115,-306.0107 560.1115,-306.0107"/>
<text text-anchor="start" x="6.9535" y="-317.5" font-family="Arial" font-size="10.00" fill="#000000">FOREIGN KEY (division_id) REFERENCES division (id) ON UPDATE NO ACTION ON DELETE NO ACTION MATCH NONE</text>
</g>
</g>
</svg>
