<?xml version="1.0" encoding="UTF-8" standalone="no"?>
<!DOCTYPE svg PUBLIC "-//W3C//DTD SVG 1.1//EN"
 "http://www.w3.org/Graphics/SVG/1.1/DTD/svg11.dtd">
<!-- Generated by graphviz version 2.40.1 (20161225.0304)
 -->
<!-- Title: taxonomy.sqlite Pages: 1 -->
<svg width="1095pt" height="496pt"
 viewBox="0.00 0.00 1094.50 496.00" xmlns="http://www.w3.org/2000/svg" xmlns:xlink="http://www.w3.org/1999/xlink">
<g id="graph0" class="graph" transform="scale(1 1) rotate(0) translate(4 492)">
<title>taxonomy.sqlite</title>
<polygon fill="#ffffff" stroke="transparent" points="-4,4 -4,-492 1090.5,-492 1090.5,4 -4,4"/>
<!-- division -->
<g id="node1" class="node">
<title>division</title>
<polygon fill="#efefef" stroke="transparent" points="571,-102.5 571,-137.5 740,-137.5 740,-102.5 571,-102.5"/>
<polygon fill="none" stroke="#000000" points="571,-102.5 571,-137.5 740,-137.5 740,-102.5 571,-102.5"/>
<text text-anchor="start" x="604.491" y="-115.3" font-family="Arial Bold" font-size="18.00" fill="#000000">division</text>
<text text-anchor="start" x="664.4922" y="-115.3" font-family="Arial" font-size="14.00" fill="#000000"> </text>
<text text-anchor="start" x="668.3828" y="-115.3" font-family="Arial" font-size="14.00" fill="#666666">[table]</text>
<polygon fill="none" stroke="#000000" points="571,-72.5 571,-102.5 740,-102.5 740,-72.5 571,-72.5"/>
<text text-anchor="start" x="578" y="-83.9" font-family="Arial" font-size="14.00" fill="#000000">id </text>
<text text-anchor="start" x="592.7798" y="-83.9" font-family="Arial" font-size="14.00" fill="#666666">[INTEGER]</text>
<polygon fill="none" stroke="#000000" points="571,-42.5 571,-72.5 740,-72.5 740,-42.5 571,-42.5"/>
<text text-anchor="start" x="577.7237" y="-53.9" font-family="Arial" font-size="14.00" fill="#000000">division </text>
<text text-anchor="start" x="628.2819" y="-53.9" font-family="Arial" font-size="14.00" fill="#666666">[VARCHAR (50)]</text>
</g>
<!-- node -->
<g id="node2" class="node">
<title>node</title>
<polygon fill="#efefef" stroke="transparent" points="570,-409.5 570,-444.5 742,-444.5 742,-409.5 570,-409.5"/>
<polygon fill="none" stroke="#000000" points="570,-409.5 570,-444.5 742,-444.5 742,-409.5 570,-409.5"/>
<text text-anchor="start" x="614.9792" y="-422.3" font-family="Arial Bold" font-size="18.00" fill="#000000">node</text>
<text text-anchor="start" x="655.004" y="-422.3" font-family="Arial" font-size="14.00" fill="#000000"> </text>
<text text-anchor="start" x="658.8946" y="-422.3" font-family="Arial" font-size="14.00" fill="#666666">[table]</text>
<polygon fill="none" stroke="#000000" points="570,-379.5 570,-409.5 742,-409.5 742,-379.5 570,-379.5"/>
<text text-anchor="start" x="577" y="-390.9" font-family="Arial" font-size="14.00" fill="#000000">tax_id </text>
<text text-anchor="start" x="618.2356" y="-390.9" font-family="Arial" font-size="14.00" fill="#666666">[INTEGER]</text>
<polygon fill="none" stroke="#000000" points="570,-349.5 570,-379.5 742,-379.5 742,-349.5 570,-349.5"/>
<text text-anchor="start" x="576.6494" y="-360.9" font-family="Arial" font-size="14.00" fill="#000000">parent_tax_id </text>
<text text-anchor="start" x="665.3492" y="-360.9" font-family="Arial" font-size="14.00" fill="#666666">[INTEGER]</text>
<polygon fill="none" stroke="#000000" points="570,-319.5 570,-349.5 742,-349.5 742,-319.5 570,-319.5"/>
<text text-anchor="start" x="577" y="-330.9" font-family="Arial" font-size="14.00" fill="#000000">rank </text>
<text text-anchor="start" x="608.1164" y="-330.9" font-family="Arial" font-size="14.00" fill="#666666">[VARCHAR (25)]</text>
<polygon fill="none" stroke="#000000" points="570,-289.5 570,-319.5 742,-319.5 742,-289.5 570,-289.5"/>
<text text-anchor="start" x="577" y="-300.9" font-family="Arial" font-size="14.00" fill="#000000">division_id </text>
<text text-anchor="start" x="646.23" y="-300.9" font-family="Arial" font-size="14.00" fill="#666666">[INTEGER]</text>
<polygon fill="none" stroke="#000000" points="570,-259.5 570,-289.5 742,-289.5 742,-259.5 570,-259.5"/>
<text text-anchor="start" x="577" y="-270.9" font-family="Arial" font-size="14.00" fill="#000000">comment </text>
<text text-anchor="start" x="638.4502" y="-270.9" font-family="Arial" font-size="14.00" fill="#666666">[TEXT]</text>
</g>
<!-- node&#45;&gt;division -->
<g id="edge1" class="edge">
<title>node:division_id&#45;&gt;division:id</title>
<path fill="none" stroke="#000000" d="M560.0912,-302.9396C534.0205,-293.5693 547.9061,-244.2626 570,-217 618.6258,-156.9986 691.3742,-241.0014 740,-181 766.164,-148.7152 781.5556,-87.5 740,-87.5"/>
<polygon fill="#000000" stroke="#000000" points="560.1217,-302.9443 569.2999,-308.9452 565.0609,-303.7221 570,-304.5 570,-304.5 570,-304.5 565.0609,-303.7221 570.7001,-300.0548 560.1217,-302.9443 560.1217,-302.9443"/>
<text text-anchor="start" x="6.9535" y="-314.5" font-family="Arial" font-size="10.00" fill="#000000">FOREIGN KEY (division_id) REFERENCES division (id) ON UPDATE NO ACTION ON DELETE NO ACTION MATCH NONE</text>
</g>
<!-- name -->
<g id="node3" class="node">
<title>name</title>
<polygon fill="#efefef" stroke="transparent" points="847,-394.5 847,-429.5 1044,-429.5 1044,-394.5 847,-394.5"/>
<polygon fill="none" stroke="#000000" points="847,-394.5 847,-429.5 1044,-429.5 1044,-394.5 847,-394.5"/>
<text text-anchor="start" x="901.9862" y="-407.3" font-family="Arial Bold" font-size="18.00" fill="#000000">name</text>
<text text-anchor="start" x="946.997" y="-407.3" font-family="Arial" font-size="14.00" fill="#000000"> </text>
<text text-anchor="start" x="950.8876" y="-407.3" font-family="Arial" font-size="14.00" fill="#666666">[table]</text>
<polygon fill="none" stroke="#000000" points="847,-364.5 847,-394.5 1044,-394.5 1044,-364.5 847,-364.5"/>
<text text-anchor="start" x="854" y="-375.9" font-family="Arial" font-size="14.00" fill="#000000">id </text>
<text text-anchor="start" x="868.7798" y="-375.9" font-family="Arial" font-size="14.00" fill="#666666">[INTEGER]</text>
<polygon fill="none" stroke="#000000" points="847,-334.5 847,-364.5 1044,-364.5 1044,-334.5 847,-334.5"/>
<text text-anchor="start" x="854" y="-345.9" font-family="Arial" font-size="14.00" fill="#000000">tax_id </text>
<text text-anchor="start" x="895.2356" y="-345.9" font-family="Arial" font-size="14.00" fill="#666666">[INTEGER]</text>
<polygon fill="none" stroke="#000000" points="847,-304.5 847,-334.5 1044,-334.5 1044,-304.5 847,-304.5"/>
<text text-anchor="start" x="854" y="-315.9" font-family="Arial" font-size="14.00" fill="#000000">name </text>
<text text-anchor="start" x="892.899" y="-315.9" font-family="Arial" font-size="14.00" fill="#666666">[VARCHAR (50)]</text>
<polygon fill="none" stroke="#000000" points="847,-274.5 847,-304.5 1044,-304.5 1044,-274.5 847,-274.5"/>
<text text-anchor="start" x="853.7174" y="-285.9" font-family="Arial" font-size="14.00" fill="#000000">name_class </text>
<text text-anchor="start" x="932.2882" y="-285.9" font-family="Arial" font-size="14.00" fill="#666666">[VARCHAR (50)]</text>
</g>
</g>
</svg>
