<?xml version="1.0" encoding="UTF-8" standalone="no"?>
<!DOCTYPE svg PUBLIC "-//W3C//DTD SVG 1.1//EN"
 "http://www.w3.org/Graphics/SVG/1.1/DTD/svg11.dtd">
<!-- Generated by graphviz version 2.40.1 (20161225.0304)
 -->
<!-- Title: ar_refseq.sqlite Pages: 1 -->
<svg width="346pt" height="639pt"
 viewBox="0.00 0.00 346.00 639.00" xmlns="http://www.w3.org/2000/svg" xmlns:xlink="http://www.w3.org/1999/xlink">
<g id="graph0" class="graph" transform="scale(1 1) rotate(0) translate(4 635)">
<title>ar_refseq.sqlite</title>
<polygon fill="#ffffff" stroke="transparent" points="-4,4 -4,-635 342,-635 342,4 -4,4"/>
<!-- ar -->
<g id="node1" class="node">
<title>ar</title>
<polygon fill="#efefef" stroke="transparent" points="43,-552.5 43,-587.5 295,-587.5 295,-552.5 43,-552.5"/>
<polygon fill="none" stroke="#000000" points="43,-552.5 43,-587.5 295,-587.5 295,-552.5 43,-552.5"/>
<text text-anchor="start" x="139.9924" y="-565.3" font-family="Arial Bold" font-size="18.00" fill="#000000">ar</text>
<text text-anchor="start" x="155.9908" y="-565.3" font-family="Arial" font-size="14.00" fill="#000000"> </text>
<text text-anchor="start" x="159.8814" y="-565.3" font-family="Arial" font-size="14.00" fill="#666666">[table]</text>
<polygon fill="none" stroke="#000000" points="43,-522.5 43,-552.5 295,-552.5 295,-522.5 43,-522.5"/>
<text text-anchor="start" x="50" y="-533.9" font-family="Arial" font-size="14.00" fill="#000000">tax_id </text>
<text text-anchor="start" x="91.2356" y="-533.9" font-family="Arial" font-size="14.00" fill="#666666">[INTEGER]</text>
<polygon fill="none" stroke="#000000" points="43,-492.5 43,-522.5 295,-522.5 295,-492.5 43,-492.5"/>
<text text-anchor="start" x="50" y="-503.9" font-family="Arial" font-size="14.00" fill="#000000">organism_name </text>
<text text-anchor="start" x="154.2398" y="-503.9" font-family="Arial" font-size="14.00" fill="#666666">[VARCHAR (255)]</text>
<polygon fill="none" stroke="#000000" points="43,-462.5 43,-492.5 295,-492.5 295,-462.5 43,-462.5"/>
<text text-anchor="start" x="50" y="-473.9" font-family="Arial" font-size="14.00" fill="#000000">bioproject </text>
<text text-anchor="start" x="114.568" y="-473.9" font-family="Arial" font-size="14.00" fill="#666666">[VARCHAR (50)]</text>
<polygon fill="none" stroke="#000000" points="43,-432.5 43,-462.5 295,-462.5 295,-432.5 43,-432.5"/>
<text text-anchor="start" x="50" y="-443.9" font-family="Arial" font-size="14.00" fill="#000000">biosample </text>
<text text-anchor="start" x="117.6774" y="-443.9" font-family="Arial" font-size="14.00" fill="#666666">[VARCHAR (50)]</text>
<polygon fill="none" stroke="#000000" points="43,-402.5 43,-432.5 295,-432.5 295,-402.5 43,-402.5"/>
<text text-anchor="start" x="49.9902" y="-413.9" font-family="Arial" font-size="14.00" fill="#000000">assembly_accession </text>
<text text-anchor="start" x="183.0154" y="-413.9" font-family="Arial" font-size="14.00" fill="#666666">[VARCHAR (50)]</text>
<polygon fill="none" stroke="#000000" points="43,-372.5 43,-402.5 295,-402.5 295,-372.5 43,-372.5"/>
<text text-anchor="start" x="50" y="-383.9" font-family="Arial" font-size="14.00" fill="#000000">refseq_category </text>
<text text-anchor="start" x="154.2538" y="-383.9" font-family="Arial" font-size="14.00" fill="#666666">[VARCHAR (50)]</text>
<polygon fill="none" stroke="#000000" points="43,-342.5 43,-372.5 295,-372.5 295,-342.5 43,-342.5"/>
<text text-anchor="start" x="50" y="-353.9" font-family="Arial" font-size="14.00" fill="#000000">assembly_level </text>
<text text-anchor="start" x="149.5666" y="-353.9" font-family="Arial" font-size="14.00" fill="#666666">[VARCHAR (50)]</text>
<polygon fill="none" stroke="#000000" points="43,-312.5 43,-342.5 295,-342.5 295,-312.5 43,-312.5"/>
<text text-anchor="start" x="50" y="-323.9" font-family="Arial" font-size="14.00" fill="#000000">genome_rep </text>
<text text-anchor="start" x="132.4726" y="-323.9" font-family="Arial" font-size="14.00" fill="#666666">[VARCHAR (50)]</text>
<polygon fill="none" stroke="#000000" points="43,-282.5 43,-312.5 295,-312.5 295,-282.5 43,-282.5"/>
<text text-anchor="start" x="50" y="-293.9" font-family="Arial" font-size="14.00" fill="#000000">seq_rel_date </text>
<text text-anchor="start" x="134.8092" y="-293.9" font-family="Arial" font-size="14.00" fill="#666666">[DATE]</text>
<polygon fill="none" stroke="#000000" points="43,-252.5 43,-282.5 295,-282.5 295,-252.5 43,-252.5"/>
<text text-anchor="start" x="50" y="-263.9" font-family="Arial" font-size="14.00" fill="#000000">asm_name </text>
<text text-anchor="start" x="123.1248" y="-263.9" font-family="Arial" font-size="14.00" fill="#666666">[VARCHAR (255)]</text>
<polygon fill="none" stroke="#000000" points="43,-222.5 43,-252.5 295,-252.5 295,-222.5 43,-222.5"/>
<text text-anchor="start" x="50" y="-233.9" font-family="Arial" font-size="14.00" fill="#000000">ftp_path </text>
<text text-anchor="start" x="104.4754" y="-233.9" font-family="Arial" font-size="14.00" fill="#666666">[VARCHAR (255)]</text>
<polygon fill="none" stroke="#000000" points="43,-192.5 43,-222.5 295,-222.5 295,-192.5 43,-192.5"/>
<text text-anchor="start" x="50" y="-203.9" font-family="Arial" font-size="14.00" fill="#000000">family </text>
<text text-anchor="start" x="90.4376" y="-203.9" font-family="Arial" font-size="14.00" fill="#666666">[VARCHAR (50)]</text>
<polygon fill="none" stroke="#000000" points="43,-162.5 43,-192.5 295,-192.5 295,-162.5 43,-162.5"/>
<text text-anchor="start" x="50" y="-173.9" font-family="Arial" font-size="14.00" fill="#000000">family_id </text>
<text text-anchor="start" x="109.1094" y="-173.9" font-family="Arial" font-size="14.00" fill="#666666">[INTEGER]</text>
<polygon fill="none" stroke="#000000" points="43,-132.5 43,-162.5 295,-162.5 295,-132.5 43,-132.5"/>
<text text-anchor="start" x="50" y="-143.9" font-family="Arial" font-size="14.00" fill="#000000">genus </text>
<text text-anchor="start" x="92.021" y="-143.9" font-family="Arial" font-size="14.00" fill="#666666">[VARCHAR (50)]</text>
<polygon fill="none" stroke="#000000" points="43,-102.5 43,-132.5 295,-132.5 295,-102.5 43,-102.5"/>
<text text-anchor="start" x="50" y="-113.9" font-family="Arial" font-size="14.00" fill="#000000">genus_id </text>
<text text-anchor="start" x="110.6928" y="-113.9" font-family="Arial" font-size="14.00" fill="#666666">[INTEGER]</text>
<polygon fill="none" stroke="#000000" points="43,-72.5 43,-102.5 295,-102.5 295,-72.5 43,-72.5"/>
<text text-anchor="start" x="50" y="-83.9" font-family="Arial" font-size="14.00" fill="#000000">species </text>
<text text-anchor="start" x="101.345" y="-83.9" font-family="Arial" font-size="14.00" fill="#666666">[VARCHAR (50)]</text>
<polygon fill="none" stroke="#000000" points="43,-42.5 43,-72.5 295,-72.5 295,-42.5 43,-42.5"/>
<text text-anchor="start" x="50" y="-53.9" font-family="Arial" font-size="14.00" fill="#000000">species_id </text>
<text text-anchor="start" x="120.0168" y="-53.9" font-family="Arial" font-size="14.00" fill="#666666">[INTEGER]</text>
</g>
</g>
</svg>
