<?xml version="1.0" encoding="UTF-8" standalone="no"?>
<!DOCTYPE svg PUBLIC "-//W3C//DTD SVG 1.1//EN"
 "http://www.w3.org/Graphics/SVG/1.1/DTD/svg11.dtd">
<!-- Generated by graphviz version 2.40.1 (20161225.0304)
 -->
<!-- Title: name Pages: 1 -->
<svg width="297pt" height="255pt"
 viewBox="0.00 0.00 297.00 255.00" xmlns="http://www.w3.org/2000/svg" xmlns:xlink="http://www.w3.org/1999/xlink">
<g id="graph0" class="graph" transform="scale(1 1) rotate(0) translate(4 251)">
<title>name</title>
<polygon fill="#ffffff" stroke="transparent" points="-4,4 -4,-251 293,-251 293,4 -4,4"/>
<!-- name -->
<g id="node1" class="node">
<title>name</title>
<polygon fill="#efefef" stroke="transparent" points="46.5,-165.5 46.5,-200.5 243.5,-200.5 243.5,-165.5 46.5,-165.5"/>
<polygon fill="none" stroke="#000000" points="46.5,-165.5 46.5,-200.5 243.5,-200.5 243.5,-165.5 46.5,-165.5"/>
<text text-anchor="start" x="101.4862" y="-178.3" font-family="Arial Bold" font-size="18.00" fill="#000000">name</text>
<text text-anchor="start" x="146.497" y="-178.3" font-family="Arial" font-size="14.00" fill="#000000"> </text>
<text text-anchor="start" x="150.3876" y="-178.3" font-family="Arial" font-size="14.00" fill="#666666">[table]</text>
<polygon fill="none" stroke="#000000" points="46.5,-135.5 46.5,-165.5 243.5,-165.5 243.5,-135.5 46.5,-135.5"/>
<text text-anchor="start" x="53.5" y="-146.9" font-family="Arial" font-size="14.00" fill="#000000">id </text>
<text text-anchor="start" x="68.2798" y="-146.9" font-family="Arial" font-size="14.00" fill="#666666">[INTEGER]</text>
<polygon fill="none" stroke="#000000" points="46.5,-105.5 46.5,-135.5 243.5,-135.5 243.5,-105.5 46.5,-105.5"/>
<text text-anchor="start" x="53.5" y="-116.9" font-family="Arial" font-size="14.00" fill="#000000">tax_id </text>
<text text-anchor="start" x="94.7356" y="-116.9" font-family="Arial" font-size="14.00" fill="#666666">[INTEGER]</text>
<polygon fill="none" stroke="#000000" points="46.5,-75.5 46.5,-105.5 243.5,-105.5 243.5,-75.5 46.5,-75.5"/>
<text text-anchor="start" x="53.5" y="-86.9" font-family="Arial" font-size="14.00" fill="#000000">name </text>
<text text-anchor="start" x="92.399" y="-86.9" font-family="Arial" font-size="14.00" fill="#666666">[VARCHAR (50)]</text>
<polygon fill="none" stroke="#000000" points="46.5,-45.5 46.5,-75.5 243.5,-75.5 243.5,-45.5 46.5,-45.5"/>
<text text-anchor="start" x="53.2174" y="-56.9" font-family="Arial" font-size="14.00" fill="#000000">name_class </text>
<text text-anchor="start" x="131.7882" y="-56.9" font-family="Arial" font-size="14.00" fill="#666666">[VARCHAR (50)]</text>
<polygon fill="none" stroke="#000000" stroke-width="3" points="44.5,-44.5 44.5,-202.5 244.5,-202.5 244.5,-44.5 44.5,-44.5"/>
</g>
</g>
</svg>
