<?xml version="1.0" encoding="UTF-8" standalone="no"?>
<!DOCTYPE svg PUBLIC "-//W3C//DTD SVG 1.1//EN"
 "http://www.w3.org/Graphics/SVG/1.1/DTD/svg11.dtd">
<!-- Generated by graphviz version 2.40.1 (20161225.0304)
 -->
<!-- Title: ar Pages: 1 -->
<svg width="352pt" height="645pt"
 viewBox="0.00 0.00 352.00 645.00" xmlns="http://www.w3.org/2000/svg" xmlns:xlink="http://www.w3.org/1999/xlink">
<g id="graph0" class="graph" transform="scale(1 1) rotate(0) translate(4 641)">
<title>ar</title>
<polygon fill="#ffffff" stroke="transparent" points="-4,4 -4,-641 348,-641 348,4 -4,4"/>
<!-- ar -->
<g id="node1" class="node">
<title>ar</title>
<polygon fill="#efefef" stroke="transparent" points="46,-555.5 46,-590.5 298,-590.5 298,-555.5 46,-555.5"/>
<polygon fill="none" stroke="#000000" points="46,-555.5 46,-590.5 298,-590.5 298,-555.5 46,-555.5"/>
<text text-anchor="start" x="142.9924" y="-568.3" font-family="Arial Bold" font-size="18.00" fill="#000000">ar</text>
<text text-anchor="start" x="158.9908" y="-568.3" font-family="Arial" font-size="14.00" fill="#000000"> </text>
<text text-anchor="start" x="162.8814" y="-568.3" font-family="Arial" font-size="14.00" fill="#666666">[table]</text>
<polygon fill="none" stroke="#000000" points="46,-525.5 46,-555.5 298,-555.5 298,-525.5 46,-525.5"/>
<text text-anchor="start" x="53" y="-536.9" font-family="Arial" font-size="14.00" fill="#000000">tax_id </text>
<text text-anchor="start" x="94.2356" y="-536.9" font-family="Arial" font-size="14.00" fill="#666666">[INTEGER]</text>
<polygon fill="none" stroke="#000000" points="46,-495.5 46,-525.5 298,-525.5 298,-495.5 46,-495.5"/>
<text text-anchor="start" x="53" y="-506.9" font-family="Arial" font-size="14.00" fill="#000000">organism_name </text>
<text text-anchor="start" x="157.2398" y="-506.9" font-family="Arial" font-size="14.00" fill="#666666">[VARCHAR (255)]</text>
<polygon fill="none" stroke="#000000" points="46,-465.5 46,-495.5 298,-495.5 298,-465.5 46,-465.5"/>
<text text-anchor="start" x="53" y="-476.9" font-family="Arial" font-size="14.00" fill="#000000">bioproject </text>
<text text-anchor="start" x="117.568" y="-476.9" font-family="Arial" font-size="14.00" fill="#666666">[VARCHAR (50)]</text>
<polygon fill="none" stroke="#000000" points="46,-435.5 46,-465.5 298,-465.5 298,-435.5 46,-435.5"/>
<text text-anchor="start" x="53" y="-446.9" font-family="Arial" font-size="14.00" fill="#000000">biosample </text>
<text text-anchor="start" x="120.6774" y="-446.9" font-family="Arial" font-size="14.00" fill="#666666">[VARCHAR (50)]</text>
<polygon fill="none" stroke="#000000" points="46,-405.5 46,-435.5 298,-435.5 298,-405.5 46,-405.5"/>
<text text-anchor="start" x="52.9902" y="-416.9" font-family="Arial" font-size="14.00" fill="#000000">assembly_accession </text>
<text text-anchor="start" x="186.0154" y="-416.9" font-family="Arial" font-size="14.00" fill="#666666">[VARCHAR (50)]</text>
<polygon fill="none" stroke="#000000" points="46,-375.5 46,-405.5 298,-405.5 298,-375.5 46,-375.5"/>
<text text-anchor="start" x="53" y="-386.9" font-family="Arial" font-size="14.00" fill="#000000">refseq_category </text>
<text text-anchor="start" x="157.2538" y="-386.9" font-family="Arial" font-size="14.00" fill="#666666">[VARCHAR (50)]</text>
<polygon fill="none" stroke="#000000" points="46,-345.5 46,-375.5 298,-375.5 298,-345.5 46,-345.5"/>
<text text-anchor="start" x="53" y="-356.9" font-family="Arial" font-size="14.00" fill="#000000">assembly_level </text>
<text text-anchor="start" x="152.5666" y="-356.9" font-family="Arial" font-size="14.00" fill="#666666">[VARCHAR (50)]</text>
<polygon fill="none" stroke="#000000" points="46,-315.5 46,-345.5 298,-345.5 298,-315.5 46,-315.5"/>
<text text-anchor="start" x="53" y="-326.9" font-family="Arial" font-size="14.00" fill="#000000">genome_rep </text>
<text text-anchor="start" x="135.4726" y="-326.9" font-family="Arial" font-size="14.00" fill="#666666">[VARCHAR (50)]</text>
<polygon fill="none" stroke="#000000" points="46,-285.5 46,-315.5 298,-315.5 298,-285.5 46,-285.5"/>
<text text-anchor="start" x="53" y="-296.9" font-family="Arial" font-size="14.00" fill="#000000">seq_rel_date </text>
<text text-anchor="start" x="137.8092" y="-296.9" font-family="Arial" font-size="14.00" fill="#666666">[DATE]</text>
<polygon fill="none" stroke="#000000" points="46,-255.5 46,-285.5 298,-285.5 298,-255.5 46,-255.5"/>
<text text-anchor="start" x="53" y="-266.9" font-family="Arial" font-size="14.00" fill="#000000">asm_name </text>
<text text-anchor="start" x="126.1248" y="-266.9" font-family="Arial" font-size="14.00" fill="#666666">[VARCHAR (255)]</text>
<polygon fill="none" stroke="#000000" points="46,-225.5 46,-255.5 298,-255.5 298,-225.5 46,-225.5"/>
<text text-anchor="start" x="53" y="-236.9" font-family="Arial" font-size="14.00" fill="#000000">ftp_path </text>
<text text-anchor="start" x="107.4754" y="-236.9" font-family="Arial" font-size="14.00" fill="#666666">[VARCHAR (255)]</text>
<polygon fill="none" stroke="#000000" points="46,-195.5 46,-225.5 298,-225.5 298,-195.5 46,-195.5"/>
<text text-anchor="start" x="53" y="-206.9" font-family="Arial" font-size="14.00" fill="#000000">family </text>
<text text-anchor="start" x="93.4376" y="-206.9" font-family="Arial" font-size="14.00" fill="#666666">[VARCHAR (50)]</text>
<polygon fill="none" stroke="#000000" points="46,-165.5 46,-195.5 298,-195.5 298,-165.5 46,-165.5"/>
<text text-anchor="start" x="53" y="-176.9" font-family="Arial" font-size="14.00" fill="#000000">family_id </text>
<text text-anchor="start" x="112.1094" y="-176.9" font-family="Arial" font-size="14.00" fill="#666666">[INTEGER]</text>
<polygon fill="none" stroke="#000000" points="46,-135.5 46,-165.5 298,-165.5 298,-135.5 46,-135.5"/>
<text text-anchor="start" x="53" y="-146.9" font-family="Arial" font-size="14.00" fill="#000000">genus </text>
<text text-anchor="start" x="95.021" y="-146.9" font-family="Arial" font-size="14.00" fill="#666666">[VARCHAR (50)]</text>
<polygon fill="none" stroke="#000000" points="46,-105.5 46,-135.5 298,-135.5 298,-105.5 46,-105.5"/>
<text text-anchor="start" x="53" y="-116.9" font-family="Arial" font-size="14.00" fill="#000000">genus_id </text>
<text text-anchor="start" x="113.6928" y="-116.9" font-family="Arial" font-size="14.00" fill="#666666">[INTEGER]</text>
<polygon fill="none" stroke="#000000" points="46,-75.5 46,-105.5 298,-105.5 298,-75.5 46,-75.5"/>
<text text-anchor="start" x="53" y="-86.9" font-family="Arial" font-size="14.00" fill="#000000">species </text>
<text text-anchor="start" x="104.345" y="-86.9" font-family="Arial" font-size="14.00" fill="#666666">[VARCHAR (50)]</text>
<polygon fill="none" stroke="#000000" points="46,-45.5 46,-75.5 298,-75.5 298,-45.5 46,-45.5"/>
<text text-anchor="start" x="53" y="-56.9" font-family="Arial" font-size="14.00" fill="#000000">species_id </text>
<text text-anchor="start" x="123.0168" y="-56.9" font-family="Arial" font-size="14.00" fill="#666666">[INTEGER]</text>
<polygon fill="none" stroke="#000000" stroke-width="3" points="44.5,-44.5 44.5,-592.5 299.5,-592.5 299.5,-44.5 44.5,-44.5"/>
</g>
</g>
</svg>
